<?xml version="1.0" encoding="UTF-8"?>
<svg width="800px" height="800px" viewBox="0 0 800 800" version="1.1" xmlns="http://www.w3.org/2000/svg" xmlns:xlink="http://www.w3.org/1999/xlink">
    <title>Illustration 2</title>
    <g id="Illustration-2" stroke="none" stroke-width="1" fill="none" fill-rule="evenodd">
        <g id="Board" transform="translate(57.000000, 179.000000)">
            <rect id="Mask" fill="#F2F4F6" x="0" y="0" width="687.304529" height="441.413353" rx="11.592"></rect>
            <rect id="Rectangle" fill="#FFFFFF" opacity="0.473539807" x="18" y="101" width="651" height="249" rx="10"></rect>
            <g id="Group-5" transform="translate(45.000000, 139.000000)">
                <g id="Group-2-Copy-6" transform="translate(427.000000, 19.000000)">
                    <path d="M63.5959059,90.4551675 C69.3737694,89.9279102 75.1831557,89.858705 80.9696983,90.2476637 L83.1384747,90.4149998 L129.674654,97.9150194 C135.191542,98.8041505 140.212909,101.62494 143.842411,105.87386 C147.514121,110.172191 149.88308,115.428991 150.67106,121.026865 L155.321821,154.066244 L155.321821,154.066244 L0,154.066244 L3.9277307,121.379035 C4.62457328,115.579798 7.14300825,110.151072 11.1207204,105.87386 C15.0971882,101.597986 20.3344005,98.7026349 26.0702241,97.609145 L63.5959059,90.4551675 L63.5959059,90.4551675 Z" id="Path" fill="#337AB7"></path>
                    <g id="Group-4" transform="translate(41.000000, 0.000000)">
                        <g id="Group-3" transform="translate(0.774021, 0.000000)">
                            <g id="Group-2" transform="translate(0.382343, 0.000000)">
                                <path d="M21.3778535,72.4275807 L53.1208284,72.4275807 L53.1208284,92.5611419 C53.1208284,101.326722 46.0149214,108.432629 37.249341,108.432629 C28.4837605,108.432629 21.3778535,101.326722 21.3778535,92.5611419 L21.3778535,72.4275807 L21.3778535,72.4275807 Z" id="Rectangle" fill="#945B3F"></path>
                                <path d="M53.1208284,72.4275807 L53.12118,75.0504811 C47.8004481,82.5184275 37.2195833,87.5293313 21.3785858,90.0831928 L21.3778535,72.4275807 L53.1208284,72.4275807 Z" id="Path" fill="#533323"></path>
                                <g id="Group-19" transform="translate(0.343636, 0.000000)">
                                    <path d="M13.9252237,54.9619964 C7.6131641,39.3858305 6.62001753,25.5541629 10.9457839,13.4669936 C17.4344336,-4.66376027 57.5752159,-5.07666954 61.4377158,15.8272103 C64.0127158,29.7631301 63.1543825,41.4837664 58.8627159,50.989119 L36.9752165,53.3658863 L13.9252237,54.9619964 Z" id="Path-42" fill="#0A0E17"></path>
                                    <path d="M13.9160573,30.5511361 C13.0189318,34.2247415 10.806856,33.8522098 11.007818,42.2411713 L9.86215118,42.2411713 C5.58305442,40.0649097 2.60242016,40.0649097 0.920248405,42.2411713 C-1.60300922,45.5055636 0.920248405,55.4698734 10.2593633,59.6676598 C15.6122602,76.3300527 24.2325677,84.8577455 36.1202857,85.2507384 C48.0080038,85.6437313 56.7247022,76.5689356 62.2703807,58.0263515 C70.9341718,54.9619964 74.2521288,43.1266474 70.3880382,40.5589842 C67.8119778,38.8472088 64.9200894,39.4079378 61.7123732,42.2411713 L60.6730635,42.2411713 C60.753448,37.4217285 59.8646378,33.5250501 58.0066329,30.5511361 C55.7403929,26.9238028 56.9593877,14.2410543 52.2214201,16.9655899 C47.446514,18.9827058 42.3322978,19.9912638 36.8787717,19.9912638 C31.0311517,19.9912638 25.1865104,18.9827058 19.344848,16.9655899 C15.381925,16.0961032 15.9409131,22.2596311 13.9160573,30.5511361 Z" id="Path-39" fill="#945B3F"></path>
                                    <g id="Group" transform="translate(61.437716, 44.152209)" stroke="#0A0E17" stroke-linecap="round" stroke-width="1.28749996">
                                        <path d="M0,6.83690957 C0.714783756,1.95261374 2.9445048,-0.314672293 6.68916314,0.0350514664" id="Path-119"></path>
                                        <line x1="1.2024882" y1="3.00113937" x2="3.34458157" y2="5.95205465" id="Path-120"></line>
                                    </g>
                                    <g id="Group-Copy-2" transform="translate(6.827939, 47.971667) scale(-1, 1) rotate(9.000000) translate(-6.827939, -47.971667) translate(3.327939, 44.471667)" stroke="#0A0E17" stroke-linecap="round" stroke-width="1.28749996">
                                        <path d="M0,6.83690957 C0.714783756,1.95261374 2.9445048,-0.314672293 6.68916314,0.0350514664" id="Path-119"></path>
                                        <line x1="1.2024882" y1="3.00113937" x2="3.34458157" y2="5.95205465" id="Path-120"></line>
                                    </g>
                                    <path d="M13.149149,54.6306081 C13.689385,57.2328631 15.2043784,59.5299835 17.3836782,61.0512457 L18.2132696,61.6303428 C19.7257356,62.686121 21.7096108,60.1881705 23.2956552,59.2647871 L23.4268861,59.1855222 C25.1584474,58.1011533 27.1602686,57.5260748 29.2033449,57.5260748 L45.395988,57.5260748 C47.0436346,57.5260748 48.6434923,58.0690991 49.9492232,59.0682199 L50.0985651,59.1855222 C51.3074219,60.1600371 53.0252789,62.7587474 54.2605713,61.8179675 L55.2673164,61.0512457 C57.2665163,59.5286854 58.6160114,57.3064458 59.045051,54.8303774 L61.5477239,35.2732466 L62.3118077,58.0072883 L62.2703807,58.0263515 C56.780159,78.0830097 48.1820207,85.4440361 36.475966,85.2594303 L36.1202857,85.2507384 C24.2325677,84.8577455 15.6122602,78.0467193 10.2593633,59.6676598 L10.2253024,59.6523059 L9.84134308,40.0253637 C9.8163936,38.7500145 9.8682508,37.4743201 9.99663323,36.2052039 L9.99663323,36.2052039 L9.99663323,36.2052039 L13.149149,54.6306081 Z" id="Path" fill="#0A0E17"></path>
                                    <path d="M32.1162734,53.3658863 C33.1328015,55.4940331 34.4826322,56.5581065 36.1657655,56.5581065 C37.8488988,56.5581065 38.9801775,55.4940331 39.5596015,53.3658863 C38.7162157,54.2467714 37.584937,54.6872139 36.1657655,54.6872139 C34.746594,54.6872139 33.3967633,54.2467714 32.1162734,53.3658863 Z" id="Path-6" fill="#533323"></path>
                                    <path d="M44.5110826,43.5132856 C45.5387917,43.5132856 46.3719146,42.6795823 46.3719146,41.6511571 C46.3719146,40.622732 45.5387917,39.7890287 44.5110826,39.7890287 C43.4833734,39.7890287 42.6502505,40.622732 42.6502505,41.6511571 C42.6502505,42.6795823 43.4833734,43.5132856 44.5110826,43.5132856 Z" id="Oval" fill="#0A0E17"></path>
                                    <path d="M26.825266,43.397765 C27.8529752,43.397765 28.686098,42.5640617 28.686098,41.5356365 C28.686098,40.5072114 27.8529752,39.6735081 26.825266,39.6735081 C25.7975569,39.6735081 24.964434,40.5072114 24.964434,41.5356365 C24.964434,42.5640617 25.7975569,43.397765 26.825266,43.397765 Z" id="Oval-Copy-3" fill="#0A0E17"></path>
                                    <path d="M20.237717,33.3597824 C24.7148319,31.2395888 28.8142214,31.2395888 32.5358855,33.3597824" id="Path-30" stroke="#0A0E17" stroke-width="1.80249995" stroke-linecap="round"></path>
                                    <path d="M38.6013089,33.6803201 C43.0784239,31.5601265 47.1778134,31.5601265 50.8994774,33.6803201" id="Path-30-Copy" stroke="#0A0E17" stroke-width="1.80249995" stroke-linecap="round" transform="translate(44.750393, 32.885247) scale(-1, 1) translate(-44.750393, -32.885247) "></path>
                                    <path d="M29.1481565,64.2000354 C30.6583009,68.8200547 33.0725103,71.1300643 36.3907848,71.1300643 C39.7090593,71.1300643 42.1232688,68.8200547 43.6334132,64.2000354 L29.1481565,64.2000354 Z" id="Mask" fill="#FFFFFF"></path>
                                </g>
                            </g>
                        </g>
                    </g>
                </g>
                <g id="Group-2-Copy-7" transform="translate(227.000000, 18.000000)">
                    <path d="M38.1003094,27.9975537 C30.9552634,52.9159794 35.5414987,80.0391311 24.963676,95.3000868 C17.9117942,105.474057 32.3441142,118.117675 68.2606361,133.230939 C76.6516654,108.010143 52.2370175,94.7470089 55.9676582,77.4224126 L83.5946093,77.4224126 C75.7024081,102.560179 75.7024081,120.570021 83.5946093,131.45194 C91.4868106,142.333859 106.688727,133.996206 129.20036,106.438983 C129.20036,86.3898429 103.917429,82.0735184 106.596334,63.3157834 C111.198133,31.0939257 95.7480902,4.23293723 80.5223338,1.54234226 C65.2965773,-1.1482527 45.2453554,3.07912795 38.1003094,27.9975537 Z" id="Path-50" fill="#782C1A"></path>
                    <path d="M58.3460618,91.9551675 C63.6469625,91.4279102 68.9767838,91.358705 74.2856471,91.7476637 L76.275391,91.9149998 L118.574389,99.3455225 C123.876792,100.276978 128.64739,103.136502 131.968216,107.37386 C135.344318,111.681752 137.4962,116.820378 138.197211,122.248507 L142.5,155.566244 L142.5,155.566244 L0,154.963856 L3.62546842,122.553428 C4.25225901,116.950138 6.54312652,111.663057 10.2027046,107.37386 C13.8426818,103.107636 18.7980822,100.173068 24.2888314,99.0321141 L58.3460618,91.9551675 L58.3460618,91.9551675 Z" id="Path" fill="#37A6A5"></path>
                    <path d="M59.9774138,77.5620369 L86.7203888,77.5620369 L86.7203888,100.195598 C86.7203888,107.580467 80.7337699,113.567086 73.3489013,113.567086 C65.9640327,113.567086 59.9774138,107.580467 59.9774138,100.195598 L59.9774138,77.5620369 L59.9774138,77.5620369 Z" id="Rectangle" fill="#FFB590"></path>
                    <path d="M86.7203888,77.5620369 L86.7207404,80.1849373 C86.7032403,80.2094996 86.7345571,80.9877934 86.7207404,81.0133091 C81.8903391,89.9337557 75.7713713,95.2176489 59.9781462,95.2176489 L59.9774138,77.5620369 L86.7203888,77.5620369 Z" id="Path" fill="#E8A685"></path>
                    <path d="M47.4353669,51.4219788 L48.0517586,57.4331995 C48.6231961,63.0060132 50.4214838,68.3831659 53.3175011,73.1785675 C56.2136615,77.9742059 60.1337817,82.0705968 64.7974824,85.1747534 L65.648245,85.7410205 C70.2765243,88.8216007 76.3111997,88.7853975 80.9021852,85.6495092 L81.6985865,85.1055246 C86.164182,82.0552843 89.8177626,77.9611491 92.3421284,73.1785675 C94.8665285,68.3959208 96.1859541,63.0695939 96.1859541,57.6616085 L96.1859541,50.0005618 C96.1859537,44.2669749 94.6691403,38.6354327 91.7894518,33.6774681 C86.9946056,25.4221735 81.7011123,20.3649508 75.908972,18.5058002 C72.4077029,17.3819692 64.7865478,15.7887416 57.715448,22.5377136 C54.2487292,25.8465041 51.3642948,30.817805 49.0621447,37.4516162 C47.5066677,41.9338397 46.9514073,46.7022734 47.4353669,51.4219788 Z" id="Path-43" fill="#FFB590"></path>
                    <g id="Group-21" transform="translate(46.000000, 39.000000)">
                        <path d="M23.5904048,23.1954766 C24.5773253,25.2616386 25.8878406,26.2947196 27.5219507,26.2947196 C29.1560607,26.2947196 30.2543896,25.2616386 30.8169371,23.1954766 C29.998116,24.0507048 28.8997871,24.4783189 27.5219507,24.4783189 C26.1441142,24.4783189 24.8335989,24.0507048 23.5904048,23.1954766 Z" id="Path-6" fill="#D19476"></path>
                        <g id="Group-11">
                            <path d="M36.0133773,11.8804315 C37.0111532,11.8804315 37.8200104,11.0710108 37.8200104,10.0725398 C37.8200104,9.07406871 37.0111532,8.264648 36.0133773,8.264648 C35.0156014,8.264648 34.2067442,9.07406871 34.2067442,10.0725398 C34.2067442,11.0710108 35.0156014,11.8804315 36.0133773,11.8804315 Z" id="Oval" fill="#19243D"></path>
                            <path d="M19.030524,11.8804315 C20.0282999,11.8804315 20.8371571,11.0710108 20.8371571,10.0725398 C20.8371571,9.07406871 20.0282999,8.264648 19.030524,8.264648 C18.0327481,8.264648 17.2238909,9.07406871 17.2238909,10.0725398 C17.2238909,11.0710108 18.0327481,11.8804315 19.030524,11.8804315 Z" id="Oval-Copy-3" fill="#19243D"></path>
                            <path d="M12.3331012,2.7761232 C16.6798149,0.717682791 20.6598048,0.717682791 24.273071,2.7761232" id="Path-30" stroke="#782C1A" stroke-width="1.75" stroke-linecap="round"></path>
                            <g id="Group-17" transform="translate(0.746712, 3.822540)" stroke="#FFFFFF" stroke-width="1.25">
                                <path d="M35.1951518,12.5 C38.6469315,12.5 41.4451518,9.70177969 41.4451518,6.25 C41.4451518,2.79822031 38.6469315,0 35.1951518,0 C31.7433721,0 28.9451518,2.79822031 28.9451518,6.25 C28.9451518,9.70177969 31.7433721,12.5 35.1951518,12.5 Z" id="Oval" stroke-linecap="round"></path>
                                <path d="M18.1738158,12.5 C21.6255955,12.5 24.4238158,9.70177969 24.4238158,6.25 C24.4238158,2.79822031 21.6255955,0 18.1738158,0 C14.7220361,0 11.9238158,2.79822031 11.9238158,6.25 C11.9238158,9.70177969 14.7220361,12.5 18.1738158,12.5 Z" id="Oval-Copy" stroke-linecap="round"></path>
                                <line x1="24.4238158" y1="6.25" x2="29.3228532" y2="6.25" id="Path-33"></line>
                                <line x1="11.9238158" y1="6.25" x2="0.851945114" y2="4.92746025" id="Path-35" stroke-linecap="round"></line>
                                <line x1="49.4392422" y1="6.25" x2="41.8304803" y2="5.51348071" id="Path-35-Copy" stroke-linecap="round" transform="translate(45.634861, 5.881740) scale(-1, 1) translate(-45.634861, -5.881740) "></line>
                            </g>
                            <path d="M30.2518939,2.35840939 C34.5986076,0.299968978 38.5785975,0.299968978 42.1918637,2.35840939" id="Path-30-Copy" stroke="#782C1A" stroke-width="1.75" stroke-linecap="round" transform="translate(36.221879, 1.586494) scale(-1, 1) translate(-36.221879, -1.586494) "></path>
                        </g>
                        <path d="M20.8371571,32.42676 C25.078513,36.0694478 29.5350421,36.0694478 34.2067442,32.42676" id="Path-36" stroke="#19243D" stroke-width="1.25" stroke-linecap="round"></path>
                    </g>
                    <path d="M63.9978088,15.907322 C71.9485374,16.5626035 78.4215293,19.5251193 83.4167846,24.7948693 C92.2423254,34.1053832 93.6561804,39.6472916 97.0468587,52.7395431" id="Path-49" stroke="#782C1A" stroke-width="1.25"></path>
                    <path d="M38.1003094,27.9975537 C30.9552634,52.9159794 35.5414987,80.0391311 24.963676,95.3000868 C14.3858533,110.561043 2.41978241,117.363831 9.18930049,137.699013 C15.9588186,158.034195 53.8790842,162.919809 62.2701135,137.699013 C70.6611428,112.478217 58.5394728,100.77402 62.2701135,83.4494237 C57.7091644,79.4048483 54.5533102,75.7046242 52.8025511,72.3487514 C52.0065402,70.8229495 51.3383181,70.3460895 51.141514,69.8852617 C45.3494263,56.3227694 41.0023581,42.3602 38.1003094,27.9975537 Z" id="Path-50-Copy" fill="#782C1A"></path>
                    <path d="M42.5,19.5674019 C38.808926,30.4745195 36.2331854,46.160117 34.7727781,66.6241944 C33.8664803,79.3237663 31.7922676,88.2085269 28.0442073,95.2176489 C22.7328366,105.150265 15.059748,111.329875 11.2117264,119.378613" id="Path-51" stroke="#FFFFFF" stroke-width="1.25" opacity="0.237211682"></path>
                    <path d="M43.6021386,17.4938956 C40.8149224,22.1878297 38.9809793,25.6890491 38.1003094,27.9975537 C33.7920451,39.2908292 32.3642179,50.8438133 31.7933216,63.1819967 C30.6744038,87.3639934 21.0105318,105.913763 11.2117264,116.032347" id="Path-52" stroke="#782C1A" stroke-width="1.25"></path>
                    <path d="M100.705895,22.1971481 C107.387968,33.9018547 109.876109,47.2346309 108.170317,62.1954766 C107.227574,70.4639144 109.515528,77.4754401 112.7576,82.75 C114.507004,85.5961246 118.12245,88.8046347 123.603936,92.3755302" id="Path-53" stroke="#782C1A" stroke-width="1.25"></path>
                </g>
                <g id="Group-2-Copy" transform="translate(16.000000, 16.000000)">
                    <path d="M63.5959059,93.8889232 C69.3737694,93.3616659 75.1831557,93.2924607 80.9696983,93.6814194 L83.1384747,93.8487555 L129.674654,101.348775 C135.191542,102.237906 140.212909,105.058696 143.842411,109.307616 C147.514121,113.605947 149.88308,118.862747 150.67106,124.46062 L155.321821,157.5 L155.321821,157.5 L0,157.5 L3.9277307,124.812791 C4.62457328,119.013554 7.14300825,113.584827 11.1207204,109.307616 C15.0971882,105.031742 20.3344005,102.136391 26.0702241,101.042901 L63.5959059,93.8889232 L63.5959059,93.8889232 Z" id="Path" fill="#337AB7"></path>
                    <g id="Group-4" transform="translate(40.000000, 0.000000)">
                        <g id="Group-3" transform="translate(0.797242, 0.000000)">
                            <g id="Group-2" transform="translate(0.393814, 0.000000)">
                                <path d="M9.258952,53.7114943 C3.22987184,39.6926493 1.22017846,30.0101046 3.22987184,24.6638602 C5.23956523,19.3176158 9.03361499,16.9543919 14.6120211,17.5741886 C17.2142727,2.75228293 26.082457,-2.69413067 41.2165742,1.23494778 C46.8720356,3.74885226 51.2199737,6.75150825 54.2603884,10.2429158 C58.8210105,15.480027 68.1474038,15.8364528 69.7949941,25.7310033 C70.8933877,32.3273702 68.7258873,42.546759 63.292493,56.3891696 L49.6255544,63.1907126 L9.94434616,59.9837343 L9.258952,53.7114943 Z" id="Path-118" fill="#782C1A"></path>
                                <path d="M20.4741885,82.3254058 L53.1694518,82.3254058 L53.1694518,103.062973 C53.1694518,112.091521 45.8503678,119.410605 36.8218202,119.410605 C27.7932725,119.410605 20.4741885,112.091521 20.4741885,103.062973 L20.4741885,82.3254058 L20.4741885,82.3254058 Z" id="Rectangle" fill="#FFB590"></path>
                                <path d="M53.1694518,82.3254058 L53.169814,85.0269932 C47.6894602,92.7189777 36.7911698,97.8802086 20.4749428,100.510686 L20.4741885,82.3254058 L53.1694518,82.3254058 Z" id="Path" fill="#E8A685"></path>
                                <path d="M17.809778,27.4823247 L17.0400376,28.1535354 C14.4658006,30.3982608 12.8965761,33.5795452 12.6821422,36.988285 L11.5265012,55.3588802 L11.5265012,55.3588802 C8.59440375,51.094992 5.43740301,50.3772334 2.05549901,53.2056047 C-3.017357,57.4481616 1.73579194,67.263842 11.5265012,68.2795573 C15.3496062,82.9047012 22.9527881,90.8588742 34.3360472,92.1420762 C51.4109357,94.0668792 60.6473184,76.7534081 60.6473184,68.2795573 C67.0574878,67.3600892 70.7874036,64.976776 71.8370658,61.1296177 C73.4115592,55.3588802 68.8215888,48.6302782 61.6437814,55.3588802 L58.810921,31.20646 C51.3822402,35.2273411 44.1060483,34.9159029 36.9823454,30.2721453 C34.3945642,28.5852377 32.1142981,27.2045827 30.1415471,26.1301804 C26.1526556,23.9577448 21.2331523,24.4971547 17.809778,27.4823247 Z" id="Path-117" fill="#FFB590"></path>
                                <g id="Group-21" transform="translate(8.776654, 42.562936)">
                                    <path d="M24.3281163,23.8913403 C25.3446443,26.0194871 26.6944751,27.0835605 28.3776084,27.0835605 C30.0607417,27.0835605 31.1920204,26.0194871 31.7714444,23.8913403 C30.9280586,24.7722253 29.7967799,25.2126678 28.3776084,25.2126678 C26.9584368,25.2126678 25.6086061,24.7722253 24.3281163,23.8913403 Z" id="Path-6" fill="#D19476"></path>
                                    <g id="Group-11">
                                        <path d="M37.1237776,12.2368441 C38.1514867,12.2368441 38.9846096,11.4031408 38.9846096,10.3747157 C38.9846096,9.34629051 38.1514867,8.5125872 37.1237776,8.5125872 C36.0960684,8.5125872 35.2629456,9.34629051 35.2629456,10.3747157 C35.2629456,11.4031408 36.0960684,12.2368441 37.1237776,12.2368441 Z" id="Oval" fill="#19243D"></path>
                                        <path d="M19.6314392,12.2368441 C20.6591483,12.2368441 21.4922712,11.4031408 21.4922712,10.3747157 C21.4922712,9.34629051 20.6591483,8.5125872 19.6314392,8.5125872 C18.60373,8.5125872 17.7706071,9.34629051 17.7706071,10.3747157 C17.7706071,11.4031408 18.60373,12.2368441 19.6314392,12.2368441 Z" id="Oval-Copy-3" fill="#19243D"></path>
                                        <path d="M12.2044823,2.36697944 C16.6815972,0.246785877 20.7809867,0.246785877 24.5026508,2.36697944" id="Path-30" stroke="#782C1A" stroke-width="1.80249995" stroke-linecap="round"></path>
                                        <g id="Group-17" transform="translate(0.799113, 3.937216)" stroke="#FFFFFF" stroke-width="1.28749996">
                                            <path d="M36.2510053,12.8749996 C39.8063383,12.8749996 42.6885052,9.9928328 42.6885052,6.43749982 C42.6885052,2.88216684 39.8063383,0 36.2510053,0 C32.6956724,0 29.8135055,2.88216684 29.8135055,6.43749982 C29.8135055,9.9928328 32.6956724,12.8749996 36.2510053,12.8749996 Z" id="Oval" stroke-linecap="round"></path>
                                            <path d="M18.7190297,12.8749996 C22.2743627,12.8749996 25.1565295,9.9928328 25.1565295,6.43749982 C25.1565295,2.88216684 22.2743627,0 18.7190297,0 C15.1636967,0 12.2815299,2.88216684 12.2815299,6.43749982 C12.2815299,9.9928328 15.1636967,12.8749996 18.7190297,12.8749996 Z" id="Oval-Copy" stroke-linecap="round"></path>
                                            <line x1="25.1565295" y1="6.43749982" x2="30.202538" y2="6.43749982" id="Path-33"></line>
                                            <line x1="12.2815299" y1="6.43749982" x2="5.85487198e-13" y2="4.92027013" id="Path-35" stroke-linecap="round"></line>
                                            <line x1="54.1337583" y1="6.43749982" x2="43.7749988" y2="4.92027013" id="Path-35-Copy" stroke-linecap="round" transform="translate(48.954379, 5.678885) scale(-1, 1) translate(-48.954379, -5.678885) "></line>
                                        </g>
                                        <path d="M30.5708715,2.36697944 C35.0479864,0.246785877 39.147376,0.246785877 42.86904,2.36697944" id="Path-30-Copy" stroke="#782C1A" stroke-width="1.80249995" stroke-linecap="round" transform="translate(36.719956, 1.571907) scale(-1, 1) translate(-36.719956, -1.571907) "></path>
                                    </g>
                                    <path d="M21.4922712,33.3995619 C25.8608677,37.1515302 30.4510925,37.1515302 35.2629456,33.3995619" id="Path-36" stroke="#19243D" stroke-width="1.28749996" stroke-linecap="round"></path>
                                </g>
                                <path d="M18.5778975,26.8710558 C21.9425055,24.432747 26.4409324,24.1148508 30.1402182,26.1294567 C32.1132741,27.2039627 34.3939831,28.5848589 36.9823454,30.2721453 C44.001288,34.8476123 51.1682675,35.2172442 58.483284,31.3810411 L58.810921,31.20646 L59.4877231,36.9801808 C46.6135128,42.941678 37.4844224,37.2277888 30.39107,30.8877834 L29.7387151,30.2980656 C25.8634126,26.7569069 22.2030998,25.5926337 18.7577767,26.8052461 L18.5778975,26.8710558 Z" id="Path" fill="#E8A685" opacity="0.67750186"></path>
                                <g id="Group" transform="translate(62.507038, 55.566780)" stroke="#19243D" stroke-linecap="round" stroke-width="1.28749996">
                                    <path d="M0,6.83690957 C0.714783756,1.95261374 2.9445048,-0.314672293 6.68916314,0.0350514664" id="Path-119"></path>
                                    <line x1="1.2024882" y1="3.00113937" x2="3.34458157" y2="5.95205465" id="Path-120"></line>
                                </g>
                                <g id="Group-Copy" transform="translate(6.075767, 59.066780) scale(-1, 1) translate(-6.075767, -59.066780) translate(2.575767, 55.566780)" stroke="#19243D" stroke-linecap="round" stroke-width="1.28749996">
                                    <path d="M0,6.83690957 C0.714783756,1.95261374 2.9445048,-0.314672293 6.68916314,0.0350514664" id="Path-119"></path>
                                    <line x1="1.2024882" y1="3.00113937" x2="3.34458157" y2="5.95205465" id="Path-120"></line>
                                </g>
                                <line x1="14.6120211" y1="17.5741886" x2="16.8462431" y2="20.4755547" id="Path-2" stroke="#FFFFFF" stroke-width="1.28749996" stroke-linecap="round"></line>
                            </g>
                        </g>
                    </g>
                </g>
                <rect id="Rectangle" stroke="#909FB5" x="0.5" y="0.5" width="186" height="173" rx="8"></rect>
                <rect id="Rectangle-Copy" stroke="#909FB5" x="204.5" y="0.5" width="186" height="173" rx="8"></rect>
                <rect id="Rectangle-Copy-2" stroke="#909FB5" x="409.5" y="0.5" width="186" height="173" rx="8"></rect>
            </g>
            <g id="Group-4" transform="translate(536.000000, 368.000000)">
                <rect id="Rectangle" fill="#008B7B" fill-rule="nonzero" x="0" y="3.55271368e-15" width="85" height="49.4999987" rx="10.7999997"></rect>
                <text id="CC" font-family="ProductSans-Regular, Product Sans" font-size="26.9999993" font-weight="normal" letter-spacing="1.79999995" fill="#FFFFFF">
                    <tspan x="21" y="34">CC</tspan>
                </text>
            </g>
            <path d="M675.712529,-1.5916157e-13 C682.114614,-1.5916157e-13 687.304529,5.18991519 687.304529,11.592 L687.304529,45.7253992 L-0.000845858987,45.7253992 L-0.000845858987,11.592 C-0.000845858987,5.18991519 5.18991519,-1.5916157e-13 11.592,-1.5916157e-13 L675.712529,-1.5916157e-13 Z" id="Path" fill="#909FB5"></path>
            <rect id="Rectangle" fill="#FFFFFF" opacity="0.300000012" x="152" y="12" width="384" height="22" rx="11"></rect>
            <g id="Group" transform="translate(35.000000, 19.000000)" fill="#FFFFFF">
                <circle id="Oval" cx="4" cy="4" r="4"></circle>
                <circle id="Oval-Copy" cx="24" cy="4" r="4"></circle>
                <circle id="Oval-Copy-2" cx="44" cy="4" r="4"></circle>
            </g>
        </g>
    </g>
</svg>