<?xml version="1.0" standalone="no"?>
<!DOCTYPE svg PUBLIC "-//W3C//DTD SVG 20010904//EN"
 "http://www.w3.org/TR/2001/REC-SVG-20010904/DTD/svg10.dtd">
<svg version="1.0" xmlns="http://www.w3.org/2000/svg"
 width="932.000000pt" height="932.000000pt" viewBox="0 0 932.000000 932.000000"
 preserveAspectRatio="xMidYMid meet">
<metadata>
Created by potrace 1.11, written by Peter Selinger 2001-2013
</metadata>
<g transform="translate(0.000000,932.000000) scale(0.100000,-0.100000)"
fill="#000000" stroke="none">
<path d="M4297 9314 c-1 -1 -51 -4 -112 -8 -60 -4 -123 -9 -140 -11 -16 -3
-52 -7 -80 -9 -27 -3 -59 -7 -70 -10 -11 -2 -40 -7 -65 -11 -56 -9 -78 -13
-110 -20 -14 -3 -34 -7 -45 -9 -16 -3 -116 -27 -170 -40 -73 -18 -215 -61
-265 -81 -19 -8 -71 -27 -115 -44 -128 -48 -352 -152 -460 -214 -68 -38 -189
-111 -200 -119 -5 -5 -41 -29 -80 -55 -251 -168 -564 -450 -745 -673 -25 -30
-48 -57 -51 -60 -3 -3 -33 -41 -66 -85 -304 -404 -517 -849 -637 -1330 -33
-133 -43 -182 -52 -250 -2 -16 -6 -39 -9 -51 -47 -200 -55 -734 -16 -1035 15
-109 30 -206 46 -279 3 -14 7 -34 9 -45 6 -31 46 -187 57 -220 48 -153 60
-197 75 -268 18 -89 23 -263 11 -367 -6 -54 -32 -176 -52 -240 -2 -8 -9 -31
-14 -50 -6 -19 -26 -89 -47 -155 -20 -66 -40 -133 -44 -150 -4 -16 -47 -160
-95 -320 -47 -159 -102 -344 -121 -410 -19 -66 -49 -165 -67 -220 -40 -126
-43 -237 -10 -300 44 -81 106 -133 188 -158 52 -15 144 -14 175 3 9 5 28 11
41 14 13 2 141 39 284 81 143 42 297 87 343 101 46 13 114 33 152 43 l68 19
-8 -26 c-13 -37 -91 -304 -95 -322 -2 -8 -20 -69 -40 -135 -184 -610 -188
-630 -141 -722 72 -142 196 -181 389 -123 138 42 579 171 597 175 8 2 76 22
150 45 153 46 315 78 440 86 47 3 95 7 107 9 34 6 36 -9 14 -83 -11 -37 -45
-152 -76 -257 -31 -104 -62 -210 -69 -235 -8 -25 -35 -117 -61 -205 -25 -88
-50 -170 -56 -183 -5 -13 -9 -45 -9 -72 0 -117 88 -215 204 -227 54 -5 50 -6
381 91 499 146 570 166 604 171 20 3 46 7 56 9 154 30 380 21 555 -20 110 -26
134 -33 269 -83 71 -27 259 -81 334 -97 62 -13 126 -25 157 -30 19 -3 42 -7
50 -9 8 -2 49 -7 90 -10 41 -3 89 -8 105 -10 38 -6 341 -6 415 -1 66 5 177 17
205 22 11 2 34 7 50 10 408 73 793 236 1134 479 195 140 398 325 547 500 32
39 61 72 64 75 20 19 149 202 201 285 167 265 312 616 363 880 2 11 7 31 10
45 8 33 15 77 22 125 3 22 7 45 9 52 23 72 24 567 1 693 -3 14 -7 45 -10 70
-3 25 -8 56 -11 70 -3 14 -8 41 -11 60 -13 77 -75 301 -112 405 -70 195 -150
361 -251 525 -43 69 -50 87 -55 152 -9 106 -17 178 -32 288 -4 30 -39 204 -50
250 -40 168 -141 474 -161 489 -5 3 -8 92 -8 196 0 226 -12 385 -40 555 -105
639 -356 1204 -759 1710 -103 128 -364 400 -462 480 -31 25 -63 52 -73 61 -34
32 -247 186 -321 233 -41 27 -87 57 -102 67 -15 10 -30 19 -33 19 -3 0 -23 11
-45 25 -53 34 -300 157 -380 190 -260 107 -576 201 -774 231 -21 3 -48 8 -60
10 -48 10 -248 33 -334 40 -82 6 -390 12 -395 8z"/>
</g>
</svg>
